<svg width="16" height="17" viewBox="0 0 16 17" fill="none" xmlns="http://www.w3.org/2000/svg">
<path d="M11.082 0.838867H4.11298C3.02272 0.840455 1.97759 1.27433 1.20675 2.04535C0.435919 2.81637 0.00229918 3.86161 0.000976563 4.95187V11.9209C0.000975404 13.012 0.434011 14.0585 1.20499 14.8306C1.97597 15.6027 3.02185 16.0373 4.11298 16.0389H11.082C12.1724 16.0375 13.2178 15.6038 13.9888 14.8327C14.7599 14.0617 15.1937 13.0163 15.195 11.9259V4.95187C15.1937 3.86144 14.7599 2.81605 13.9888 2.045C13.2178 1.27395 12.1724 0.84019 11.082 0.838867V0.838867ZM7.60098 12.5919C6.77898 12.5925 5.97528 12.3492 5.29156 11.8929C4.60783 11.4367 4.07481 10.7878 3.75993 10.0285C3.44504 9.26924 3.36245 8.43361 3.52259 7.62737C3.68274 6.82113 4.07843 6.0805 4.65959 5.49919C5.24076 4.91789 5.98129 4.52202 6.7875 4.36168C7.5937 4.20134 8.42935 4.28374 9.18872 4.59844C9.94809 4.91314 10.597 5.446 11.0535 6.12962C11.5099 6.81323 11.7534 7.61687 11.753 8.43887C11.7511 9.53957 11.3131 10.5947 10.5349 11.3731C9.75668 12.1515 8.70168 12.5898 7.60098 12.5919ZM11.855 5.26187C11.6118 5.26246 11.3738 5.19082 11.1714 5.05602C10.969 4.92123 10.8111 4.72935 10.7178 4.50472C10.6246 4.2801 10.6001 4.03284 10.6476 3.7943C10.695 3.55575 10.8122 3.33667 10.9844 3.16483C11.1565 2.993 11.3758 2.87614 11.6144 2.82908C11.853 2.78202 12.1002 2.80687 12.3247 2.9005C12.5492 2.99412 12.7408 3.15229 12.8752 3.35496C13.0097 3.55762 13.081 3.79565 13.08 4.03887C13.0784 4.3636 12.9483 4.67452 12.7183 4.90367C12.4882 5.13283 12.1767 5.26161 11.852 5.26187H11.855Z" fill="white"/>
<path d="M7.59798 5.17285C6.95242 5.17285 6.32136 5.36428 5.7846 5.72293C5.24783 6.08158 4.82949 6.59136 4.58245 7.18777C4.3354 7.78419 4.27076 8.44047 4.3967 9.07362C4.52264 9.70678 4.8335 10.2884 5.28998 10.7448C5.74646 11.2013 6.32806 11.5122 6.96122 11.6381C7.59437 11.7641 8.25065 11.6994 8.84706 11.4524C9.44348 11.2053 9.95324 10.787 10.3119 10.2502C10.6705 9.71347 10.862 9.0824 10.862 8.43684C10.8609 7.5715 10.5167 6.74191 9.9048 6.13002C9.29291 5.51813 8.46332 5.17391 7.59798 5.17285Z" fill="white"/>
<path d="M11.852 3.6958C11.7854 3.6958 11.7202 3.71556 11.6648 3.75259C11.6094 3.78962 11.5662 3.84225 11.5407 3.90383C11.5152 3.96541 11.5085 4.03317 11.5215 4.09854C11.5345 4.16391 11.5666 4.22396 11.6137 4.2711C11.6608 4.31823 11.7209 4.35032 11.7863 4.36332C11.8516 4.37632 11.9194 4.36965 11.981 4.34415C12.0426 4.31864 12.0952 4.27544 12.1322 4.22002C12.1692 4.1646 12.189 4.09945 12.189 4.0328C12.189 3.94342 12.1535 3.8577 12.0903 3.7945C12.0271 3.7313 11.9414 3.6958 11.852 3.6958Z" fill="white"/>
</svg>
