<svg width="18" height="21" viewBox="0 0 18 21" fill="none" xmlns="http://www.w3.org/2000/svg">
<path d="M3.93394 6.51904H0.679944C0.504371 6.51904 0.335989 6.58879 0.21184 6.71294C0.0876905 6.83709 0.0179443 7.00547 0.0179443 7.18105V19.444C0.0182093 19.6194 0.0880725 19.7876 0.212193 19.9115C0.336313 20.0354 0.504544 20.105 0.679944 20.105H3.93394C4.10917 20.1048 4.27715 20.0351 4.40105 19.9111C4.52495 19.7872 4.59468 19.6193 4.59494 19.444V7.18105C4.59494 7.00565 4.52534 6.83741 4.4014 6.71329C4.27747 6.58917 4.10934 6.51931 3.93394 6.51904ZM3.46294 18.973H1.15094V7.65204H3.46294V18.973Z" fill="#474747"/>
<path d="M2.30698 0.802979C1.85074 0.803176 1.4048 0.938648 1.02555 1.19226C0.646297 1.44588 0.350759 1.80625 0.176301 2.22782C0.00184259 2.64939 -0.043701 3.11322 0.045428 3.56066C0.134557 4.00811 0.354356 4.41909 0.677036 4.74163C0.999715 5.06417 1.41078 5.28379 1.85827 5.37272C2.30576 5.46166 2.76957 5.41591 3.19106 5.24127C3.61255 5.06663 3.9728 4.77094 4.22625 4.39158C4.4797 4.01221 4.61498 3.56622 4.61498 3.10998C4.61418 2.49819 4.37073 1.91171 3.93804 1.47921C3.50535 1.0467 2.91876 0.803508 2.30698 0.802979ZM2.30698 4.28498C2.07458 4.28498 1.84741 4.21607 1.65418 4.08696C1.46095 3.95784 1.31035 3.77433 1.22142 3.55963C1.13249 3.34493 1.10922 3.10868 1.15455 2.88075C1.19989 2.65282 1.3118 2.44345 1.47613 2.27913C1.64045 2.1148 1.84982 2.00289 2.07775 1.95756C2.30567 1.91222 2.54193 1.93549 2.75663 2.02442C2.97133 2.11335 3.15484 2.26396 3.28395 2.45718C3.41306 2.65041 3.48198 2.87759 3.48198 3.10998C3.48171 3.42153 3.35783 3.72024 3.13754 3.94054C2.91724 4.16083 2.61853 4.28471 2.30698 4.28498Z" fill="#474747"/>
<path d="M15.12 7.95705C14.3399 7.30681 13.3515 6.95959 12.336 6.97905C11.7083 6.99092 11.091 7.14116 10.528 7.41905V7.15105C10.528 7.06805 10.5117 6.98587 10.4799 6.90919C10.4482 6.83252 10.4016 6.76283 10.3429 6.70415C10.2842 6.64546 10.2146 6.59891 10.1379 6.56715C10.0612 6.53539 9.97902 6.51904 9.89603 6.51904H6.58403C6.50103 6.51904 6.41886 6.53539 6.34218 6.56715C6.2655 6.59891 6.19583 6.64546 6.13715 6.70415C6.07846 6.76283 6.0319 6.83252 6.00014 6.90919C5.96838 6.98587 5.95203 7.06805 5.95203 7.15105V19.474C5.95203 19.557 5.96838 19.6392 6.00014 19.7159C6.0319 19.7926 6.07846 19.8623 6.13715 19.9209C6.19583 19.9796 6.2655 20.0262 6.34218 20.0579C6.41886 20.0897 6.50103 20.106 6.58403 20.106H9.96303C10.1131 20.106 10.2571 20.0464 10.3633 19.9403C10.4694 19.8341 10.529 19.6902 10.529 19.54V12.19C10.5267 11.8865 10.6422 11.5938 10.8513 11.3737C11.0604 11.1536 11.3467 11.0232 11.65 11.01C11.8046 11.0055 11.9586 11.032 12.1028 11.088C12.247 11.144 12.3785 11.2283 12.4895 11.336C12.6005 11.4436 12.6889 11.5725 12.7492 11.7149C12.8096 11.8573 12.8408 12.0104 12.841 12.165V19.549C12.8413 19.6959 12.8997 19.8367 13.0036 19.9405C13.1074 20.0443 13.2482 20.1028 13.395 20.103H16.642C16.7889 20.1028 16.9296 20.0443 17.0335 19.9405C17.1373 19.8367 17.1958 19.6959 17.196 19.549V12.39C17.1969 11.5437 17.0113 10.7076 16.6525 9.94109C16.2937 9.17458 15.7705 8.4965 15.12 7.95505V7.95705ZM16.064 18.973H13.973V12.168C13.9605 11.5694 13.7139 10.9995 13.2861 10.5805C12.8583 10.1615 12.2833 9.92688 11.6845 9.92688C11.0857 9.92688 10.5108 10.1615 10.083 10.5805C9.65515 10.9995 9.40854 11.5694 9.39603 12.168V18.973H7.08403V7.65204H9.39603V8.47505C9.39602 8.58405 9.42749 8.69074 9.48665 8.78229C9.54581 8.87384 9.63013 8.94636 9.72951 8.99113C9.82889 9.03591 9.93909 9.05103 10.0469 9.0347C10.1546 9.01836 10.2554 8.97127 10.337 8.89905C10.8955 8.40507 11.6116 8.12608 12.357 8.11205C13.1 8.09736 13.8233 8.35123 14.394 8.82704C14.917 9.26239 15.3377 9.80761 15.6262 10.4239C15.9146 11.0403 16.0638 11.7126 16.063 12.3931L16.064 18.973Z" fill="#474747"/>
</svg>
