<svg width="18" height="17" viewBox="0 0 18 17" fill="none" xmlns="http://www.w3.org/2000/svg">
<path d="M0.299022 8.30781L4.49902 10.4028C4.57874 10.4425 4.66704 10.4618 4.75603 10.459C4.84503 10.4562 4.93195 10.4314 5.00902 10.3868L8.75502 8.21081L6.49002 10.2188C6.43342 10.269 6.38805 10.3306 6.35686 10.3995C6.32567 10.4684 6.30937 10.5432 6.30902 10.6188V15.5088C6.30937 15.6214 6.34502 15.731 6.41096 15.8223C6.47689 15.9135 6.56979 15.9818 6.67657 16.0174C6.78335 16.0531 6.89863 16.0544 7.00617 16.0211C7.1137 15.9878 7.20809 15.9216 7.27602 15.8318L9.09402 13.4148L13.594 15.9748C13.6679 16.0168 13.7506 16.0407 13.8355 16.0445C13.9204 16.0483 14.005 16.0319 14.0823 15.9967C14.1596 15.9614 14.2274 15.9084 14.2802 15.8418C14.333 15.7752 14.3693 15.6971 14.386 15.6138L17.186 1.64081C17.2047 1.54634 17.1977 1.44859 17.1657 1.35776C17.1337 1.26693 17.0779 1.18636 17.0041 1.12445C16.9303 1.06254 16.8413 1.02156 16.7463 1.0058C16.6513 0.990029 16.5538 1.00005 16.464 1.03481L0.341022 7.32581C0.244306 7.36403 0.160739 7.42945 0.100433 7.51417C0.0401274 7.59889 0.00566762 7.69928 0.00122395 7.80317C-0.00321972 7.90707 0.0225432 8.01003 0.075395 8.09959C0.128247 8.18915 0.205922 8.26147 0.299022 8.30781ZM15.939 2.39681L13.474 14.6768L9.21402 12.2508C9.09989 12.1852 8.96568 12.1636 8.83673 12.1901C8.70777 12.2166 8.59298 12.2895 8.51402 12.3948L7.38302 13.9028V10.8628L13.51 5.43381C13.6081 5.34491 13.6699 5.22298 13.6838 5.09134C13.6976 4.95969 13.6624 4.82758 13.5849 4.72026C13.5074 4.61295 13.3931 4.53796 13.2638 4.50965C13.1345 4.48134 12.9993 4.50169 12.884 4.56681L4.72302 9.31281L1.86202 7.88681L15.939 2.39681Z" fill="#474747"/>
</svg>
